<?xml version="1.0" encoding="utf-8"?>
<!-- Generator: Adobe Illustrator 24.3.0, SVG Export Plug-In . SVG Version: 6.00 Build 0)  -->
<svg version="1.1" id="Layer_1" xmlns="http://www.w3.org/2000/svg" xmlns:xlink="http://www.w3.org/1999/xlink" x="0px" y="0px"
	 viewBox="0 0 708.4 142.5" style="enable-background:new 0 0 708.4 142.5;" xml:space="preserve">
<style type="text/css">
	.st0{fill:#FFFFFF;}
</style>
<rect x="69" y="46" class="st0" width="25" height="68"/>
<rect x="100" y="62" class="st0" width="90" height="52"/>
<rect x="196" y="46" class="st0" width="24" height="68"/>
<rect x="100" y="25" class="st0" width="90" height="31"/>
<path class="st0" d="M256,73.8c2.2,1,4.1,2.5,5.7,4.4c1.6,1.9,2.7,4.1,3.5,6.4c1.6,5.1,1.6,10.5,0,15.6c-0.7,2.3-1.9,4.5-3.5,6.4
	c-1.5,1.8-3.5,3.3-5.7,4.3c-4.9,2.1-10.5,2.1-15.5,0c-2.2-1-4.1-2.5-5.7-4.3c-1.6-1.9-2.7-4.1-3.5-6.4c-1.6-5.1-1.6-10.5,0-15.6
	c0.7-2.3,1.9-4.5,3.5-6.4c1.6-1.8,3.5-3.3,5.7-4.4C245.4,71.7,251,71.7,256,73.8z M242.4,77.5c-1.6,0.9-3.1,2.2-4.2,3.7
	c-1.1,1.6-2,3.3-2.5,5.2c-1.1,3.9-1.1,8,0,11.9c0.5,1.9,1.4,3.6,2.5,5.2c1.1,1.5,2.5,2.8,4.2,3.7c3.7,1.9,8,1.9,11.7,0
	c1.7-0.9,3.1-2.2,4.2-3.7c1.1-1.6,2-3.3,2.5-5.2c1.1-3.9,1.1-8,0-11.9c-0.5-1.9-1.4-3.6-2.5-5.2c-1.1-1.5-2.5-2.8-4.2-3.7
	C250.4,75.7,246.1,75.7,242.4,77.5z"/>
<path class="st0" d="M278.3,73.3v6.4h0.2c1.1-2.2,2.8-4.1,4.9-5.6c2.3-1.4,5-2.1,7.7-2c2.4,0,4.8,0.6,6.8,1.9
	c2.1,1.2,3.5,3.3,4.1,5.6c1-2.4,2.8-4.4,5-5.6c2.2-1.2,4.6-1.9,7.1-1.8c8.4,0,12.7,4.5,12.7,13.4v25.9h-4.6V85.8
	c0-3.2-0.7-5.6-2-7.2s-3.7-2.5-7-2.5c-1.7-0.1-3.5,0.3-5,1.2c-1.3,0.7-2.4,1.8-3.2,3.1c-0.8,1.4-1.4,2.8-1.7,4.4
	c-0.3,1.7-0.5,3.4-0.5,5.1v21.6h-4.7V85.6c0-1.2-0.1-2.5-0.4-3.7c-0.2-1.1-0.7-2.1-1.3-3c-0.6-0.9-1.5-1.6-2.5-2
	c-1.2-0.5-2.5-0.8-3.8-0.7c-1.8,0-3.5,0.3-5.1,1.1c-1.4,0.7-2.6,1.7-3.5,3c-0.9,1.3-1.6,2.8-2,4.4c-0.5,1.8-0.7,3.7-0.7,5.6v21.3
	h-4.7V73.3H278.3z"/>
<path class="st0" d="M339.8,98.9c0.4,1.7,1.2,3.4,2.3,4.8c1,1.4,2.4,2.7,3.9,3.6c1.7,1,3.7,1.5,5.7,1.4c3.4,0,6.1-0.9,8-2.7
	c2-1.9,3.4-4.4,4-7.1h4.7c-0.7,3.8-2.6,7.4-5.4,10.1c-2.7,2.4-6.4,3.6-11.2,3.6c-2.7,0.1-5.4-0.5-7.8-1.6c-2.1-1-4-2.5-5.4-4.4
	c-1.4-1.9-2.5-4.1-3.1-6.4c-0.7-2.5-1-5.1-1-7.7c0-2.5,0.3-5,1-7.4c0.6-2.3,1.7-4.5,3.1-6.5c1.4-1.9,3.3-3.5,5.4-4.6
	c2.4-1.2,5.1-1.8,7.8-1.7c5.2-0.2,10.2,2.3,13.1,6.7c1.4,2.1,2.4,4.4,2.9,6.9c0.6,2.6,0.8,5.2,0.7,7.9h-29.4
	C339.1,95.4,339.4,97.2,339.8,98.9z M362.9,84.6c-0.5-1.6-1.4-3-2.4-4.3c-1-1.2-2.3-2.3-3.8-3c-1.5-0.8-3.3-1.2-5-1.2
	c-1.8,0-3.5,0.4-5.1,1.2c-1.5,0.7-2.7,1.8-3.8,3c-1.1,1.3-1.9,2.8-2.5,4.4c-0.6,1.6-1,3.3-1.2,5.1h24.7
	C363.8,88,363.5,86.3,362.9,84.6z"/>
<path class="st0" d="M434.1,69.2c-1-1.5-2.2-2.9-3.7-4c-1.5-1.1-3.1-1.9-4.8-2.5c-1.8-0.6-3.6-0.9-5.5-0.8c-3.1-0.1-6.2,0.6-9,2
	c-2.4,1.3-4.6,3.1-6.2,5.3c-1.6,2.2-2.8,4.8-3.5,7.4c-1.5,5.6-1.5,11.4,0,17c0.7,2.7,1.9,5.2,3.5,7.5c1.6,2.2,3.7,4,6.2,5.3
	c2.8,1.4,5.9,2.1,9,2c2.3,0,4.6-0.4,6.7-1.3c1.9-0.9,3.7-2.1,5.1-3.6c1.5-1.6,2.6-3.4,3.5-5.4c0.9-2.1,1.5-4.4,1.8-6.7h5
	c-0.3,3-1.1,6-2.3,8.8c-1.1,2.5-2.7,4.7-4.6,6.7c-1.9,1.8-4.2,3.3-6.6,4.2c-2.7,1-5.6,1.5-8.5,1.5c-3.8,0.1-7.5-0.7-10.9-2.3
	c-3-1.4-5.7-3.5-7.8-6c-2.1-2.6-3.7-5.5-4.7-8.7c-2.1-6.8-2.1-14.1,0-20.9c1-3.2,2.6-6.2,4.7-8.8c2.1-2.6,4.8-4.6,7.8-6.1
	c5.8-2.5,12.2-3,18.3-1.2c2.3,0.7,4.5,1.8,6.5,3.3c2,1.5,3.6,3.3,4.9,5.4c1.3,2.2,2.2,4.7,2.5,7.3h-5
	C436,72.7,435.2,70.9,434.1,69.2z"/>
<path class="st0" d="M454.4,58.7v7.5h-4.7v-7.5H454.4z M454.4,73.3v38.2h-4.7V73.3H454.4z"/>
<path class="st0" d="M468.7,73.3v6.6h0.1c0.9-2.3,2.6-4.3,4.7-5.6c2.2-1.4,4.8-2.1,7.5-2.1c2.3-0.1,4.5,0.3,6.7,1
	c1.7,0.6,3.2,1.6,4.3,2.9c1.1,1.3,1.9,2.9,2.3,4.6c0.5,2,0.7,4.1,0.7,6.1v24.6h-4.7V87.7c0-1.5-0.1-3.1-0.4-4.6
	c-0.3-1.3-0.8-2.6-1.6-3.7c-0.8-1.1-1.8-1.9-3-2.4c-1.5-0.6-3.1-0.9-4.7-0.9c-1.7,0-3.4,0.3-5,1c-1.4,0.6-2.7,1.6-3.7,2.7
	c-1,1.2-1.9,2.6-2.4,4.1c-0.6,1.7-0.9,3.4-0.9,5.2v22.3H464V73.3H468.7z"/>
<path class="st0" d="M508,98.9c0.4,1.7,1.2,3.4,2.3,4.8c1,1.4,2.4,2.7,3.9,3.6c1.7,1,3.7,1.5,5.7,1.4c3.4,0,6.1-0.9,8-2.7
	c2-1.9,3.4-4.4,4-7.1h4.7c-0.7,3.8-2.6,7.4-5.4,10.1c-2.7,2.4-6.4,3.6-11.2,3.6c-2.7,0.1-5.4-0.5-7.8-1.6c-2.1-1-4-2.5-5.4-4.4
	c-1.4-1.9-2.5-4.1-3.1-6.4c-0.7-2.5-1-5.1-1-7.7c0-2.5,0.3-5,1-7.4c0.6-2.3,1.7-4.5,3.1-6.5c1.4-1.9,3.3-3.5,5.4-4.6
	c2.4-1.2,5.1-1.8,7.8-1.7c5.2-0.2,10.2,2.3,13.1,6.7c1.4,2.1,2.4,4.4,2.9,6.9c0.6,2.6,0.8,5.2,0.7,7.9h-29.4
	C507.3,95.4,507.5,97.2,508,98.9z M531.1,84.6c-0.5-1.6-1.4-3-2.4-4.3c-1-1.2-2.3-2.3-3.8-3c-1.5-0.8-3.3-1.2-5-1.2
	c-1.8,0-3.5,0.4-5.1,1.2c-1.5,0.7-2.7,1.8-3.8,3c-1.1,1.3-1.9,2.8-2.5,4.4c-0.6,1.6-1,3.3-1.2,5.1h24.7
	C532,88,531.7,86.3,531.1,84.6z"/>
<path class="st0" d="M548,73.3v6.4h0.2c1.1-2.2,2.8-4.1,4.9-5.6c2.3-1.4,5-2.1,7.7-2c2.4,0,4.7,0.6,6.8,1.9c2.1,1.2,3.5,3.3,4.1,5.6
	c1-2.4,2.8-4.4,5-5.6c2.2-1.2,4.6-1.9,7.1-1.8c8.4,0,12.7,4.5,12.7,13.4v25.9h-4.7V85.8c0-3.2-0.7-5.6-2-7.2s-3.7-2.5-7-2.5
	c-1.7-0.1-3.5,0.3-5,1.2c-1.3,0.7-2.4,1.8-3.2,3.1c-0.8,1.4-1.4,2.8-1.7,4.4c-0.3,1.7-0.5,3.4-0.5,5.1v21.6h-4.7V85.6
	c0-1.2-0.1-2.5-0.4-3.7c-0.2-1.1-0.7-2.1-1.3-3c-0.6-0.9-1.5-1.6-2.5-2c-1.2-0.5-2.5-0.8-3.8-0.7c-1.8,0-3.5,0.3-5.1,1.1
	c-1.4,0.7-2.6,1.7-3.5,3c-0.9,1.3-1.6,2.8-2,4.4c-0.5,1.8-0.7,3.7-0.7,5.6v21.3h-4.7V73.3H548z"/>
<path class="st0" d="M607,79.2c0.7-1.6,1.8-2.9,3.2-4c1.4-1.1,3-1.9,4.8-2.3c2-0.5,4-0.8,6.1-0.7c1.7,0,3.4,0.2,5,0.5
	c1.6,0.3,3.1,0.9,4.5,1.8c1.4,0.9,2.5,2.2,3.3,3.7c0.9,2,1.3,4.1,1.3,6.2v20.3c0,1.9,0.9,2.8,2.7,2.8c0.5,0,1-0.1,1.5-0.3v3.9
	c-0.5,0.1-1,0.2-1.5,0.2c-0.5,0.1-1.1,0.1-1.6,0.1c-1,0-1.9-0.1-2.8-0.5c-0.7-0.3-1.2-0.8-1.7-1.4c-0.4-0.6-0.7-1.4-0.8-2.1
	c-0.1-0.9-0.2-1.8-0.2-2.7h-0.2c-0.8,1.2-1.6,2.3-2.5,3.3c-0.8,0.9-1.8,1.8-2.9,2.4c-1.1,0.7-2.4,1.2-3.6,1.5
	c-1.6,0.4-3.2,0.5-4.8,0.5c-1.7,0-3.4-0.2-5-0.6c-1.5-0.4-2.9-1.1-4.1-2c-1.2-0.9-2.1-2.1-2.7-3.5c-0.7-1.6-1-3.3-1-5
	c-0.1-2.2,0.5-4.4,1.8-6.3c1.2-1.5,2.9-2.7,4.7-3.4c2.1-0.8,4.4-1.4,6.7-1.7c2.4-0.3,4.9-0.6,7.4-0.9c1-0.1,1.8-0.2,2.6-0.4
	c0.7-0.1,1.3-0.4,1.8-0.8c0.5-0.4,0.9-0.9,1.1-1.5c0.3-0.8,0.4-1.7,0.4-2.5c0.1-1.3-0.2-2.7-0.8-3.9c-0.5-1-1.2-1.8-2.2-2.4
	c-1-0.6-2-1-3.2-1.2c-1.3-0.2-2.6-0.3-3.9-0.3c-2.6-0.1-5.1,0.6-7.3,2.1c-1.9,1.4-2.9,3.7-3,6.8h-4.7C605.7,83,606.2,81.1,607,79.2z
	 M630.4,90.6c-0.4,0.6-1,1-1.7,1.2c-0.7,0.2-1.5,0.4-2.2,0.5c-2,0.3-4,0.7-6.1,0.9c-1.9,0.2-3.9,0.6-5.7,1.2c-1.6,0.5-3,1.3-4.3,2.3
	c-1.2,1.1-1.8,2.7-1.7,4.3c0,1.1,0.2,2.2,0.7,3.2c0.5,0.9,1.1,1.7,1.9,2.4c0.8,0.7,1.7,1.2,2.7,1.5c1,0.3,2.1,0.5,3.2,0.5
	c1.7,0,3.5-0.3,5.1-0.8c1.6-0.5,3-1.3,4.3-2.4c1.2-1,2.2-2.3,2.9-3.8c0.7-1.6,1.1-3.3,1.1-5v-6.1H630.4z"/>
</svg>
