<svg id="Layer_1" data-name="Layer 1" xmlns="http://www.w3.org/2000/svg" viewBox="0 0 533 520"><title>Star1</title><path d="M525.64,196.81a27.8,27.8,0,0,0-23.93-19.26l-151-13.81L291.06,23a27.71,27.71,0,0,0-51.12,0L180.25,163.74l-151,13.81a28.09,28.09,0,0,0-15.77,49L127.6,327.4,94,476.74a28.12,28.12,0,0,0,10.81,28.92A27.44,27.44,0,0,0,135.29,507L265.5,428.59,395.67,507a27.5,27.5,0,0,0,30.55-1.34A28.15,28.15,0,0,0,437,476.74L403.38,327.4l114.1-100.81A28.17,28.17,0,0,0,525.64,196.81Z" style="fill:#ffc107"/></svg>
